<svg xmlns="http://www.w3.org/2000/svg" viewBox="0 0 32 32">
<path d="M15.923 26.883L2.344 3.365a.5.5 0 01.467-.77h2.247a.5.5 0 01.442.278L16 19.333 26.5 2.873a.5.5 0 01.44-.278h2.247a.5.5 0 01.467.77L16.077 26.883a.175.175 0 01-.154.085.175.175 0 01-.154-.085z" fill="#ffc71e"/>
<path d="M22.95 2.595h2.247a.5.5 0 01.467.77L16.077 26.883a.175.175 0 01-.308 0L9.124 15.01l7.352 1.344z" fill="#ad46ff"/>
<path d="M6.803 2.595h-2.25a.5.5 0 00-.465.77l11.835 23.518a.175.175 0 00.308 0l6.953-11.873L15.923 13.667z" fill="#646cff"/>
</svg>
